<?xml version="1.0" encoding="UTF-8" standalone="no"?>
<svg
   xmlns:dc="http://purl.org/dc/elements/1.1/"
   xmlns:cc="http://creativecommons.org/ns#"
   xmlns:rdf="http://www.w3.org/1999/02/22-rdf-syntax-ns#"
   xmlns:svg="http://www.w3.org/2000/svg"
   xmlns="http://www.w3.org/2000/svg"
   id="svg2021"
   version="1.1"
   viewBox="0 0 73.505997 51.386002"
   height="51.386002mm"
   width="73.505997mm">
  <defs
     id="defs2015" />
  <metadata
     id="metadata2018">
    <rdf:RDF>
      <cc:Work
         rdf:about="">
        <dc:format>image/svg+xml</dc:format>
        <dc:type
           rdf:resource="http://purl.org/dc/dcmitype/StillImage" />
        <dc:title></dc:title>
      </cc:Work>
    </rdf:RDF>
  </metadata>
  <g
     id="layer1">
    <path
       id="path485"
       d="m 1.8398484,-1.5420654e-4 -1.839800047949,5.93e-4 C 0.02104835,0.02053879 0.96584835,0.99706879 0.98684835,1.0171438 10.566348,10.188059 15.895148,16.328706 32.933648,23.497896 l 0.012,0.004 0.014,0.006 c 4.3277,1.62183 8.7537,2.55462 12.9472,2.86328 2.9121,3.18459 5.7621,6.12827 7.7735,8.24219 l 0.025,0.0254 18.9051,16.0469 0.8955,0.70049 v -1.67122 l -18.8907,-16.03321 c -1.8225,-1.91482 -4.3156,-4.43724 -6.8887,-7.20508 1.2621,0.0339 2.5129,0.0404 3.7071,-0.0547 5.65521,-0.4501 10.4743,-2.35936 13.1797,-5.96679 l 0.014,-0.0195 0.012,-0.0195 c 2.1807,-3.3683 1.978,-6.57314 0.2812,-9.126955 -1.6968,-2.5538142 -4.749,-4.5160622 -8.2187,-5.9433602 -3.4698,-1.427298 -7.3704,-2.309227 -10.8262,-2.583984 -3.4559,-0.274757 -6.4517,-0.0026 -8.2539,1.181641 -1.1772,0.755171 -1.9572,1.753355 -2.3281,2.894531 -0.3717,1.143581 -0.3442,2.402405 -0.045,3.7128912 0.5986,2.620966 2.2733,5.505486 4.416,8.441406 1.4712,2.01577 3.2696,3.96762 5.0079,5.92383 -3.6631,-0.39247 -7.4878,-1.23868 -11.2422,-2.64454 C 16.524048,15.155666 11.490148,9.2373828 1.8365484,1.3079346e-4 Z M 45.773448,4.0799238 c 3.31,0.26316 7.1043,1.123099 10.4277,2.490234 3.3235,1.367135 6.1621,3.253166 7.6211,5.4492192 1.4552,2.190119 1.6712,4.629759 -0.2773,7.654299 -2.3868,3.16972 -6.8015,4.99718 -12.2109,5.42773 -1.5174,0.12077 -3.1215,0.10527 -4.7618,0.008 -2.0447,-2.25094 -4.1382,-4.57034 -5.8359,-6.89648 -2.0907,-2.86457 -3.6691,-5.661472 -4.1934,-7.957033 -0.2621,-1.1477812 -0.2634,-2.1550692 0.014,-3.0078132 0.2772,-0.852744 0.821,-1.577293 1.7871,-2.195313 v -0.002 -0.002 c 1.2715,-0.835464 4.1119,-1.23191 7.4219,-0.96875 z"
       style="color:#000000;font-style:normal;font-variant:normal;font-weight:normal;font-stretch:normal;font-size:medium;line-height:normal;font-family:sans-serif;font-variant-ligatures:normal;font-variant-position:normal;font-variant-caps:normal;font-variant-numeric:normal;font-variant-alternates:normal;font-variant-east-asian:normal;font-feature-settings:normal;font-variation-settings:normal;text-indent:0;text-align:start;text-decoration:none;text-decoration-line:none;text-decoration-style:solid;text-decoration-color:#000000;letter-spacing:normal;word-spacing:normal;text-transform:none;writing-mode:lr-tb;direction:ltr;text-orientation:mixed;dominant-baseline:auto;baseline-shift:baseline;text-anchor:start;white-space:normal;shape-padding:0;shape-margin:0;inline-size:0;clip-rule:nonzero;display:inline;overflow:visible;visibility:visible;opacity:1;isolation:auto;mix-blend-mode:normal;color-interpolation:sRGB;color-interpolation-filters:linearRGB;solid-color:#000000;solid-opacity:1;vector-effect:none;fill:#a1e0d0;fill-opacity:1;fill-rule:nonzero;stroke:none;stroke-width:1.32292;stroke-linecap:butt;stroke-linejoin:miter;stroke-miterlimit:4;stroke-dasharray:none;stroke-dashoffset:0;stroke-opacity:1;color-rendering:auto;image-rendering:auto;shape-rendering:auto;text-rendering:auto;enable-background:accumulate;stop-color:#000000;stop-opacity:1" />
  </g>
</svg>
